<?xml version="1.0" encoding="UTF-8" standalone="no"?>
<svg width="23px" height="28px" viewBox="0 0 23 28" version="1.1" xmlns="http://www.w3.org/2000/svg" xmlns:xlink="http://www.w3.org/1999/xlink">
    <!-- Generator: Sketch 49.3 (51167) - http://www.bohemiancoding.com/sketch -->
    <title>D</title>
    <desc>Created with Sketch.</desc>
    <defs></defs>
    <g id="Exploration" stroke="none" stroke-width="1" fill="none" fill-rule="evenodd">
        <path d="M9,23.2906593 L9,27.3124705 C8.98804187,27.31249 8.97607606,27.3125 8.96410256,27.3125 L0,27.3125 L0,0 L10.0646062,0 C13.7863281,0 16.7743324,1.31725636 19.0287088,3.95180861 C21.2830851,6.58636085 22.4102564,9.83781643 22.4102564,13.7062729 C22.4102564,17.5747294 21.2497369,20.8095108 18.928663,23.4107143 C18.1545164,24.2782923 17.269082,25.0011868 16.272356,25.5793991 L13.6120481,21.8520434 C14.0159261,21.5515972 14.4008292,21.2040907 14.7667582,20.8095238 C16.3008013,19.1554252 17.0678114,16.6943234 17.0678114,13.4261447 C17.0678114,10.7582437 16.3975113,8.50056632 15.056891,6.65304487 C13.7162708,4.80552342 11.945478,3.88177656 9.74445971,3.88177656 L5.06231685,3.88177656 L5.06231685,23.2906593 L9,23.2906593 Z" id="D" fill="#333333"></path>
    </g>
</svg>